<svg width="96" height="96" xmlns="http://www.w3.org/2000/svg" xmlns:xlink="http://www.w3.org/1999/xlink" overflow="hidden"><defs><clipPath id="clip0"><rect x="701" y="298" width="96" height="96"/></clipPath></defs><g clip-path="url(#clip0)" transform="translate(-701 -298)"><path d="M749 314C731.3 314 717 328.3 717 346 717 363.7 731.3 378 749 378 766.7 378 781 363.7 781 346 781 328.3 766.7 314 749 314ZM749 384C728 384 711 367 711 346 711 325 728 308 749 308 770 308 787 325 787 346 787 367 770 384 749 384Z"/><path d="M769 338 757 338 757 326C757 323.8 755.2 322 753 322L745 322C742.8 322 741 323.8 741 326L741 338 729 338C726.8 338 725 339.8 725 342L725 350C725 352.2 726.8 354 729 354L741 354 741 366C741 368.2 742.8 370 745 370L753 370C755.2 370 757 368.2 757 366L757 354 769 354C771.2 354 773 352.2 773 350L773 342C773 339.8 771.2 338 769 338Z"/></g></svg>