<svg width="96" height="96" xmlns="http://www.w3.org/2000/svg" xmlns:xlink="http://www.w3.org/1999/xlink" overflow="hidden"><defs><clipPath id="clip0"><rect x="137" y="298" width="96" height="96"/></clipPath></defs><g clip-path="url(#clip0)" transform="translate(-137 -298)"><path d="M196.3 335.3C192.1 335.3 188.8 331.9 188.8 327.8 188.8 323.7 192.2 320.3 196.3 320.3 200.5 320.3 203.8 323.7 203.8 327.8 203.8 331.9 200.4 335.3 196.3 335.3ZM213.2 323.1C212.8 321.7 212.3 320.4 211.6 319.2L213.2 314.5 209.6 310.9 204.9 312.5C203.7 311.8 202.4 311.3 201 310.9L198.8 306.5 193.8 306.5 191.6 310.9C190.2 311.3 188.9 311.8 187.7 312.5L183 310.9 179.4 314.5 181 319.2C180.3 320.4 179.8 321.7 179.4 323.1L175 325.3 175 330.3 179.4 332.5C179.8 333.9 180.3 335.2 181 336.4L179.4 341.1 182.9 344.6 187.6 343C188.8 343.7 190.1 344.2 191.5 344.6L193.7 349 198.7 349 200.9 344.6C202.3 344.2 203.6 343.7 204.8 343L209.5 344.6 213.1 341.1 211.5 336.4C212.2 335.2 212.8 333.8 213.2 332.5L217.6 330.3 217.6 325.3 213.2 323.1Z"/><path d="M173.7 371.7C169.5 371.7 166.2 368.3 166.2 364.2 166.2 360 169.6 356.7 173.7 356.7 177.9 356.7 181.2 360.1 181.2 364.2 181.2 368.3 177.9 371.7 173.7 371.7L173.7 371.7ZM189 355.6 190.6 350.9 187 347.3 182.3 348.9C181.1 348.2 179.7 347.7 178.4 347.3L176.2 342.9 171.2 342.9 169 347.3C167.6 347.7 166.3 348.2 165.1 348.9L160.4 347.3 156.9 350.8 158.4 355.5C157.7 356.7 157.2 358.1 156.8 359.4L152.4 361.6 152.4 366.6 156.8 368.8C157.2 370.2 157.7 371.5 158.4 372.7L156.9 377.4 160.4 380.9 165.1 379.4C166.3 380.1 167.6 380.6 169 381L171.2 385.4 176.2 385.4 178.4 381C179.8 380.6 181.1 380.1 182.3 379.4L187 381 190.5 377.4 189 372.8C189.7 371.6 190.2 370.3 190.6 368.9L195 366.7 195 361.7 190.6 359.5C190.2 358.1 189.7 356.8 189 355.6Z"/></g></svg>